<mxfile host="app.diagrams.net" modified="2023-07-09T03:32:26.828Z" agent="Mozilla/5.0 (Windows NT 10.0; Win64; x64) AppleWebKit/537.36 (KHTML, like Gecko) Chrome/114.0.0.0 Safari/537.36" etag="dBFbOurZdbWOaZWvN9m-" version="21.6.1" type="device">
  <diagram name="Page-1" id="Tnnti2QI78DkkMwHbGgA">
    <mxGraphModel dx="2249" dy="745" grid="1" gridSize="10" guides="1" tooltips="1" connect="1" arrows="1" fold="1" page="1" pageScale="1" pageWidth="850" pageHeight="1100" math="0" shadow="0">
      <root>
        <mxCell id="0" />
        <mxCell id="1" parent="0" />
        <mxCell id="Id2sm8sXSiFgrlO3pFlQ-1" value="User" style="swimlane;fontStyle=0;childLayout=stackLayout;horizontal=1;startSize=26;fillColor=none;horizontalStack=0;resizeParent=1;resizeParentMax=0;resizeLast=0;collapsible=1;marginBottom=0;whiteSpace=wrap;html=1;" vertex="1" parent="1">
          <mxGeometry x="100" y="150" width="140" height="208" as="geometry" />
        </mxCell>
        <mxCell id="Id2sm8sXSiFgrlO3pFlQ-2" value="PK username: String" style="text;strokeColor=none;fillColor=none;align=left;verticalAlign=top;spacingLeft=4;spacingRight=4;overflow=hidden;rotatable=0;points=[[0,0.5],[1,0.5]];portConstraint=eastwest;whiteSpace=wrap;html=1;" vertex="1" parent="Id2sm8sXSiFgrlO3pFlQ-1">
          <mxGeometry y="26" width="140" height="26" as="geometry" />
        </mxCell>
        <mxCell id="Id2sm8sXSiFgrlO3pFlQ-3" value="+ email: String" style="text;strokeColor=none;fillColor=none;align=left;verticalAlign=top;spacingLeft=4;spacingRight=4;overflow=hidden;rotatable=0;points=[[0,0.5],[1,0.5]];portConstraint=eastwest;whiteSpace=wrap;html=1;" vertex="1" parent="Id2sm8sXSiFgrlO3pFlQ-1">
          <mxGeometry y="52" width="140" height="26" as="geometry" />
        </mxCell>
        <mxCell id="Id2sm8sXSiFgrlO3pFlQ-5" value="+ name: String" style="text;strokeColor=none;fillColor=none;align=left;verticalAlign=top;spacingLeft=4;spacingRight=4;overflow=hidden;rotatable=0;points=[[0,0.5],[1,0.5]];portConstraint=eastwest;whiteSpace=wrap;html=1;" vertex="1" parent="Id2sm8sXSiFgrlO3pFlQ-1">
          <mxGeometry y="78" width="140" height="26" as="geometry" />
        </mxCell>
        <mxCell id="Id2sm8sXSiFgrlO3pFlQ-4" value="+ password: String" style="text;strokeColor=none;fillColor=none;align=left;verticalAlign=top;spacingLeft=4;spacingRight=4;overflow=hidden;rotatable=0;points=[[0,0.5],[1,0.5]];portConstraint=eastwest;whiteSpace=wrap;html=1;" vertex="1" parent="Id2sm8sXSiFgrlO3pFlQ-1">
          <mxGeometry y="104" width="140" height="26" as="geometry" />
        </mxCell>
        <mxCell id="Id2sm8sXSiFgrlO3pFlQ-22" value="+ role: Enum" style="text;strokeColor=none;fillColor=none;align=left;verticalAlign=top;spacingLeft=4;spacingRight=4;overflow=hidden;rotatable=0;points=[[0,0.5],[1,0.5]];portConstraint=eastwest;whiteSpace=wrap;html=1;" vertex="1" parent="Id2sm8sXSiFgrlO3pFlQ-1">
          <mxGeometry y="130" width="140" height="26" as="geometry" />
        </mxCell>
        <mxCell id="Id2sm8sXSiFgrlO3pFlQ-6" value="+ isDisabled: bool" style="text;strokeColor=none;fillColor=none;align=left;verticalAlign=top;spacingLeft=4;spacingRight=4;overflow=hidden;rotatable=0;points=[[0,0.5],[1,0.5]];portConstraint=eastwest;whiteSpace=wrap;html=1;" vertex="1" parent="Id2sm8sXSiFgrlO3pFlQ-1">
          <mxGeometry y="156" width="140" height="26" as="geometry" />
        </mxCell>
        <mxCell id="Id2sm8sXSiFgrlO3pFlQ-51" value="+ projects: List[String]" style="text;strokeColor=none;fillColor=none;align=left;verticalAlign=top;spacingLeft=4;spacingRight=4;overflow=hidden;rotatable=0;points=[[0,0.5],[1,0.5]];portConstraint=eastwest;whiteSpace=wrap;html=1;" vertex="1" parent="Id2sm8sXSiFgrlO3pFlQ-1">
          <mxGeometry y="182" width="140" height="26" as="geometry" />
        </mxCell>
        <mxCell id="Id2sm8sXSiFgrlO3pFlQ-8" value="Project" style="swimlane;fontStyle=0;childLayout=stackLayout;horizontal=1;startSize=26;fillColor=none;horizontalStack=0;resizeParent=1;resizeParentMax=0;resizeLast=0;collapsible=1;marginBottom=0;whiteSpace=wrap;html=1;" vertex="1" parent="1">
          <mxGeometry x="380" y="150" width="160" height="182" as="geometry" />
        </mxCell>
        <mxCell id="Id2sm8sXSiFgrlO3pFlQ-9" value="PK projectID: String" style="text;strokeColor=none;fillColor=none;align=left;verticalAlign=top;spacingLeft=4;spacingRight=4;overflow=hidden;rotatable=0;points=[[0,0.5],[1,0.5]];portConstraint=eastwest;whiteSpace=wrap;html=1;" vertex="1" parent="Id2sm8sXSiFgrlO3pFlQ-8">
          <mxGeometry y="26" width="160" height="26" as="geometry" />
        </mxCell>
        <mxCell id="Id2sm8sXSiFgrlO3pFlQ-11" value="+ name: String" style="text;strokeColor=none;fillColor=none;align=left;verticalAlign=top;spacingLeft=4;spacingRight=4;overflow=hidden;rotatable=0;points=[[0,0.5],[1,0.5]];portConstraint=eastwest;whiteSpace=wrap;html=1;" vertex="1" parent="Id2sm8sXSiFgrlO3pFlQ-8">
          <mxGeometry y="52" width="160" height="26" as="geometry" />
        </mxCell>
        <mxCell id="Id2sm8sXSiFgrlO3pFlQ-10" value="+ description: String" style="text;strokeColor=none;fillColor=none;align=left;verticalAlign=top;spacingLeft=4;spacingRight=4;overflow=hidden;rotatable=0;points=[[0,0.5],[1,0.5]];portConstraint=eastwest;whiteSpace=wrap;html=1;" vertex="1" parent="Id2sm8sXSiFgrlO3pFlQ-8">
          <mxGeometry y="78" width="160" height="26" as="geometry" />
        </mxCell>
        <mxCell id="Id2sm8sXSiFgrlO3pFlQ-28" value="+ framework: Enum" style="text;strokeColor=none;fillColor=none;align=left;verticalAlign=top;spacingLeft=4;spacingRight=4;overflow=hidden;rotatable=0;points=[[0,0.5],[1,0.5]];portConstraint=eastwest;whiteSpace=wrap;html=1;" vertex="1" parent="Id2sm8sXSiFgrlO3pFlQ-8">
          <mxGeometry y="104" width="160" height="26" as="geometry" />
        </mxCell>
        <mxCell id="Id2sm8sXSiFgrlO3pFlQ-12" value="+ owner: String" style="text;strokeColor=none;fillColor=none;align=left;verticalAlign=top;spacingLeft=4;spacingRight=4;overflow=hidden;rotatable=0;points=[[0,0.5],[1,0.5]];portConstraint=eastwest;whiteSpace=wrap;html=1;" vertex="1" parent="Id2sm8sXSiFgrlO3pFlQ-8">
          <mxGeometry y="130" width="160" height="26" as="geometry" />
        </mxCell>
        <mxCell id="Id2sm8sXSiFgrlO3pFlQ-13" value="+ gitlab_reference:String" style="text;strokeColor=none;fillColor=none;align=left;verticalAlign=top;spacingLeft=4;spacingRight=4;overflow=hidden;rotatable=0;points=[[0,0.5],[1,0.5]];portConstraint=eastwest;whiteSpace=wrap;html=1;" vertex="1" parent="Id2sm8sXSiFgrlO3pFlQ-8">
          <mxGeometry y="156" width="160" height="26" as="geometry" />
        </mxCell>
        <mxCell id="Id2sm8sXSiFgrlO3pFlQ-14" value="&lt;span style=&quot;font-size: 11px;&quot;&gt;I don&#39;t know exactly how I will be grabbing the files from gitlab, but whatever unique identifier I end up using will be stored here&lt;br&gt;&lt;br&gt;pages and components should be file paths to components&lt;br&gt;&lt;/span&gt;" style="text;html=1;strokeColor=none;fillColor=none;spacing=5;spacingTop=-20;whiteSpace=wrap;overflow=hidden;rounded=0;" vertex="1" parent="1">
          <mxGeometry x="540" y="300" width="190" height="90" as="geometry" />
        </mxCell>
        <mxCell id="Id2sm8sXSiFgrlO3pFlQ-16" value="User_Out" style="swimlane;fontStyle=0;childLayout=stackLayout;horizontal=1;startSize=26;fillColor=none;horizontalStack=0;resizeParent=1;resizeParentMax=0;resizeLast=0;collapsible=1;marginBottom=0;whiteSpace=wrap;html=1;" vertex="1" parent="1">
          <mxGeometry x="100" y="380" width="140" height="130" as="geometry" />
        </mxCell>
        <mxCell id="Id2sm8sXSiFgrlO3pFlQ-17" value="PK username: String" style="text;strokeColor=none;fillColor=none;align=left;verticalAlign=top;spacingLeft=4;spacingRight=4;overflow=hidden;rotatable=0;points=[[0,0.5],[1,0.5]];portConstraint=eastwest;whiteSpace=wrap;html=1;" vertex="1" parent="Id2sm8sXSiFgrlO3pFlQ-16">
          <mxGeometry y="26" width="140" height="26" as="geometry" />
        </mxCell>
        <mxCell id="Id2sm8sXSiFgrlO3pFlQ-18" value="+ email: String" style="text;strokeColor=none;fillColor=none;align=left;verticalAlign=top;spacingLeft=4;spacingRight=4;overflow=hidden;rotatable=0;points=[[0,0.5],[1,0.5]];portConstraint=eastwest;whiteSpace=wrap;html=1;" vertex="1" parent="Id2sm8sXSiFgrlO3pFlQ-16">
          <mxGeometry y="52" width="140" height="26" as="geometry" />
        </mxCell>
        <mxCell id="Id2sm8sXSiFgrlO3pFlQ-19" value="+ name: String" style="text;strokeColor=none;fillColor=none;align=left;verticalAlign=top;spacingLeft=4;spacingRight=4;overflow=hidden;rotatable=0;points=[[0,0.5],[1,0.5]];portConstraint=eastwest;whiteSpace=wrap;html=1;" vertex="1" parent="Id2sm8sXSiFgrlO3pFlQ-16">
          <mxGeometry y="78" width="140" height="26" as="geometry" />
        </mxCell>
        <mxCell id="Id2sm8sXSiFgrlO3pFlQ-21" value="+ projects: List[String]" style="text;strokeColor=none;fillColor=none;align=left;verticalAlign=top;spacingLeft=4;spacingRight=4;overflow=hidden;rotatable=0;points=[[0,0.5],[1,0.5]];portConstraint=eastwest;whiteSpace=wrap;html=1;" vertex="1" parent="Id2sm8sXSiFgrlO3pFlQ-16">
          <mxGeometry y="104" width="140" height="26" as="geometry" />
        </mxCell>
        <mxCell id="Id2sm8sXSiFgrlO3pFlQ-23" value="Roles" style="swimlane;fontStyle=0;childLayout=stackLayout;horizontal=1;startSize=26;fillColor=none;horizontalStack=0;resizeParent=1;resizeParentMax=0;resizeLast=0;collapsible=1;marginBottom=0;whiteSpace=wrap;html=1;" vertex="1" parent="1">
          <mxGeometry x="-110" y="202" width="140" height="78" as="geometry" />
        </mxCell>
        <mxCell id="Id2sm8sXSiFgrlO3pFlQ-24" value="ADMIN" style="text;strokeColor=none;fillColor=none;align=left;verticalAlign=top;spacingLeft=4;spacingRight=4;overflow=hidden;rotatable=0;points=[[0,0.5],[1,0.5]];portConstraint=eastwest;whiteSpace=wrap;html=1;" vertex="1" parent="Id2sm8sXSiFgrlO3pFlQ-23">
          <mxGeometry y="26" width="140" height="26" as="geometry" />
        </mxCell>
        <mxCell id="Id2sm8sXSiFgrlO3pFlQ-25" value="STANDARD" style="text;strokeColor=none;fillColor=none;align=left;verticalAlign=top;spacingLeft=4;spacingRight=4;overflow=hidden;rotatable=0;points=[[0,0.5],[1,0.5]];portConstraint=eastwest;whiteSpace=wrap;html=1;" vertex="1" parent="Id2sm8sXSiFgrlO3pFlQ-23">
          <mxGeometry y="52" width="140" height="26" as="geometry" />
        </mxCell>
        <mxCell id="Id2sm8sXSiFgrlO3pFlQ-27" value="&lt;span style=&quot;font-size: 11px;&quot;&gt;Roles are an enum instead of a simple isAdmin boolean for future proofing more complex user system stretch goals that I could never even dream of reaching&lt;/span&gt;" style="text;html=1;strokeColor=none;fillColor=none;spacing=5;spacingTop=-20;whiteSpace=wrap;overflow=hidden;rounded=0;" vertex="1" parent="1">
          <mxGeometry x="-300" y="202" width="190" height="90" as="geometry" />
        </mxCell>
        <mxCell id="Id2sm8sXSiFgrlO3pFlQ-29" value="Frameworks" style="swimlane;fontStyle=0;childLayout=stackLayout;horizontal=1;startSize=26;fillColor=none;horizontalStack=0;resizeParent=1;resizeParentMax=0;resizeLast=0;collapsible=1;marginBottom=0;whiteSpace=wrap;html=1;" vertex="1" parent="1">
          <mxGeometry x="580" y="160" width="140" height="78" as="geometry" />
        </mxCell>
        <mxCell id="Id2sm8sXSiFgrlO3pFlQ-30" value="REACT" style="text;strokeColor=none;fillColor=none;align=left;verticalAlign=top;spacingLeft=4;spacingRight=4;overflow=hidden;rotatable=0;points=[[0,0.5],[1,0.5]];portConstraint=eastwest;whiteSpace=wrap;html=1;" vertex="1" parent="Id2sm8sXSiFgrlO3pFlQ-29">
          <mxGeometry y="26" width="140" height="26" as="geometry" />
        </mxCell>
        <mxCell id="Id2sm8sXSiFgrlO3pFlQ-31" value="VANILLA" style="text;strokeColor=none;fillColor=none;align=left;verticalAlign=top;spacingLeft=4;spacingRight=4;overflow=hidden;rotatable=0;points=[[0,0.5],[1,0.5]];portConstraint=eastwest;whiteSpace=wrap;html=1;" vertex="1" parent="Id2sm8sXSiFgrlO3pFlQ-29">
          <mxGeometry y="52" width="140" height="26" as="geometry" />
        </mxCell>
        <mxCell id="Id2sm8sXSiFgrlO3pFlQ-32" style="edgeStyle=orthogonalEdgeStyle;rounded=0;orthogonalLoop=1;jettySize=auto;html=1;exitX=0;exitY=0.5;exitDx=0;exitDy=0;entryX=1;entryY=0.5;entryDx=0;entryDy=0;" edge="1" parent="1" source="Id2sm8sXSiFgrlO3pFlQ-22" target="Id2sm8sXSiFgrlO3pFlQ-24">
          <mxGeometry relative="1" as="geometry" />
        </mxCell>
        <mxCell id="Id2sm8sXSiFgrlO3pFlQ-33" style="edgeStyle=orthogonalEdgeStyle;rounded=0;orthogonalLoop=1;jettySize=auto;html=1;exitX=1;exitY=0.5;exitDx=0;exitDy=0;entryX=0;entryY=0.5;entryDx=0;entryDy=0;" edge="1" parent="1" source="Id2sm8sXSiFgrlO3pFlQ-28" target="Id2sm8sXSiFgrlO3pFlQ-30">
          <mxGeometry relative="1" as="geometry" />
        </mxCell>
        <mxCell id="Id2sm8sXSiFgrlO3pFlQ-44" value="Database Objects" style="text;align=center;fontStyle=1;verticalAlign=middle;spacingLeft=3;spacingRight=3;strokeColor=none;rotatable=0;points=[[0,0.5],[1,0.5]];portConstraint=eastwest;html=1;" vertex="1" parent="1">
          <mxGeometry x="220" y="90" width="80" height="26" as="geometry" />
        </mxCell>
        <mxCell id="Id2sm8sXSiFgrlO3pFlQ-45" value="" style="swimlane;fontStyle=0;childLayout=stackLayout;horizontal=1;startSize=26;fillColor=none;horizontalStack=0;resizeParent=1;resizeParentMax=0;resizeLast=0;collapsible=1;marginBottom=0;whiteSpace=wrap;html=1;" vertex="1" parent="1">
          <mxGeometry x="810" y="12" width="140" height="104" as="geometry" />
        </mxCell>
        <mxCell id="Id2sm8sXSiFgrlO3pFlQ-46" value="+ field: type" style="text;strokeColor=none;fillColor=none;align=left;verticalAlign=top;spacingLeft=4;spacingRight=4;overflow=hidden;rotatable=0;points=[[0,0.5],[1,0.5]];portConstraint=eastwest;whiteSpace=wrap;html=1;" vertex="1" parent="Id2sm8sXSiFgrlO3pFlQ-45">
          <mxGeometry y="26" width="140" height="26" as="geometry" />
        </mxCell>
        <mxCell id="Id2sm8sXSiFgrlO3pFlQ-47" value="+ field: type" style="text;strokeColor=none;fillColor=none;align=left;verticalAlign=top;spacingLeft=4;spacingRight=4;overflow=hidden;rotatable=0;points=[[0,0.5],[1,0.5]];portConstraint=eastwest;whiteSpace=wrap;html=1;" vertex="1" parent="Id2sm8sXSiFgrlO3pFlQ-45">
          <mxGeometry y="52" width="140" height="26" as="geometry" />
        </mxCell>
        <mxCell id="Id2sm8sXSiFgrlO3pFlQ-48" value="+ field: type" style="text;strokeColor=none;fillColor=none;align=left;verticalAlign=top;spacingLeft=4;spacingRight=4;overflow=hidden;rotatable=0;points=[[0,0.5],[1,0.5]];portConstraint=eastwest;whiteSpace=wrap;html=1;" vertex="1" parent="Id2sm8sXSiFgrlO3pFlQ-45">
          <mxGeometry y="78" width="140" height="26" as="geometry" />
        </mxCell>
        <mxCell id="Id2sm8sXSiFgrlO3pFlQ-49" value="New Account" style="text;align=left;fontStyle=1;verticalAlign=middle;spacingLeft=3;spacingRight=3;strokeColor=none;rotatable=0;points=[[0,0.5],[1,0.5]];portConstraint=eastwest;html=1;" vertex="1" parent="1">
          <mxGeometry x="980" y="214" width="80" height="26" as="geometry" />
        </mxCell>
        <mxCell id="Id2sm8sXSiFgrlO3pFlQ-50" value="Delete Account" style="text;align=left;fontStyle=1;verticalAlign=middle;spacingLeft=3;spacingRight=3;strokeColor=none;rotatable=0;points=[[0,0.5],[1,0.5]];portConstraint=eastwest;html=1;" vertex="1" parent="1">
          <mxGeometry x="980" y="240" width="80" height="26" as="geometry" />
        </mxCell>
        <mxCell id="Id2sm8sXSiFgrlO3pFlQ-54" value="Update Account" style="text;align=left;fontStyle=1;verticalAlign=middle;spacingLeft=3;spacingRight=3;strokeColor=none;rotatable=0;points=[[0,0.5],[1,0.5]];portConstraint=eastwest;html=1;" vertex="1" parent="1">
          <mxGeometry x="980" y="266" width="80" height="26" as="geometry" />
        </mxCell>
        <mxCell id="Id2sm8sXSiFgrlO3pFlQ-55" value="User API" style="text;align=left;fontStyle=1;verticalAlign=middle;spacingLeft=3;spacingRight=3;strokeColor=none;rotatable=0;points=[[0,0.5],[1,0.5]];portConstraint=eastwest;html=1;" vertex="1" parent="1">
          <mxGeometry x="960" y="190" width="80" height="26" as="geometry" />
        </mxCell>
        <mxCell id="Id2sm8sXSiFgrlO3pFlQ-56" value="Add Project" style="text;align=left;fontStyle=1;verticalAlign=middle;spacingLeft=3;spacingRight=3;strokeColor=none;rotatable=0;points=[[0,0.5],[1,0.5]];portConstraint=eastwest;html=1;" vertex="1" parent="1">
          <mxGeometry x="1000" y="290" width="80" height="26" as="geometry" />
        </mxCell>
        <mxCell id="Id2sm8sXSiFgrlO3pFlQ-57" value="Set isDisabled" style="text;align=left;fontStyle=1;verticalAlign=middle;spacingLeft=3;spacingRight=3;strokeColor=none;rotatable=0;points=[[0,0.5],[1,0.5]];portConstraint=eastwest;html=1;" vertex="1" parent="1">
          <mxGeometry x="1000" y="342" width="80" height="26" as="geometry" />
        </mxCell>
        <mxCell id="Id2sm8sXSiFgrlO3pFlQ-58" value="Remove Project" style="text;align=left;fontStyle=1;verticalAlign=middle;spacingLeft=3;spacingRight=3;strokeColor=none;rotatable=0;points=[[0,0.5],[1,0.5]];portConstraint=eastwest;html=1;" vertex="1" parent="1">
          <mxGeometry x="1000" y="316" width="80" height="26" as="geometry" />
        </mxCell>
        <mxCell id="Id2sm8sXSiFgrlO3pFlQ-60" value="New Password" style="text;align=left;fontStyle=1;verticalAlign=middle;spacingLeft=3;spacingRight=3;strokeColor=none;rotatable=0;points=[[0,0.5],[1,0.5]];portConstraint=eastwest;html=1;" vertex="1" parent="1">
          <mxGeometry x="1000" y="368" width="80" height="26" as="geometry" />
        </mxCell>
        <mxCell id="Id2sm8sXSiFgrlO3pFlQ-61" value="Set email" style="text;align=left;fontStyle=1;verticalAlign=middle;spacingLeft=3;spacingRight=3;strokeColor=none;rotatable=0;points=[[0,0.5],[1,0.5]];portConstraint=eastwest;html=1;" vertex="1" parent="1">
          <mxGeometry x="1000" y="394" width="80" height="26" as="geometry" />
        </mxCell>
        <mxCell id="Id2sm8sXSiFgrlO3pFlQ-62" value="Set name" style="text;align=left;fontStyle=1;verticalAlign=middle;spacingLeft=3;spacingRight=3;strokeColor=none;rotatable=0;points=[[0,0.5],[1,0.5]];portConstraint=eastwest;html=1;" vertex="1" parent="1">
          <mxGeometry x="1000" y="420" width="80" height="26" as="geometry" />
        </mxCell>
        <mxCell id="Id2sm8sXSiFgrlO3pFlQ-63" value="Authenticate Account" style="text;align=left;fontStyle=1;verticalAlign=middle;spacingLeft=3;spacingRight=3;strokeColor=none;rotatable=0;points=[[0,0.5],[1,0.5]];portConstraint=eastwest;html=1;" vertex="1" parent="1">
          <mxGeometry x="980" y="524" width="140" height="26" as="geometry" />
        </mxCell>
        <mxCell id="Id2sm8sXSiFgrlO3pFlQ-64" value="Get Account" style="text;align=left;fontStyle=1;verticalAlign=middle;spacingLeft=3;spacingRight=3;strokeColor=none;rotatable=0;points=[[0,0.5],[1,0.5]];portConstraint=eastwest;html=1;" vertex="1" parent="1">
          <mxGeometry x="980" y="446" width="80" height="26" as="geometry" />
        </mxCell>
        <mxCell id="Id2sm8sXSiFgrlO3pFlQ-66" value="By Email" style="text;align=left;fontStyle=1;verticalAlign=middle;spacingLeft=3;spacingRight=3;strokeColor=none;rotatable=0;points=[[0,0.5],[1,0.5]];portConstraint=eastwest;html=1;" vertex="1" parent="1">
          <mxGeometry x="1000" y="470" width="80" height="26" as="geometry" />
        </mxCell>
        <mxCell id="Id2sm8sXSiFgrlO3pFlQ-67" value="By Username" style="text;align=left;fontStyle=1;verticalAlign=middle;spacingLeft=3;spacingRight=3;strokeColor=none;rotatable=0;points=[[0,0.5],[1,0.5]];portConstraint=eastwest;html=1;" vertex="1" parent="1">
          <mxGeometry x="1000" y="496" width="90" height="26" as="geometry" />
        </mxCell>
        <mxCell id="Id2sm8sXSiFgrlO3pFlQ-68" value="Editor API" style="text;align=left;fontStyle=1;verticalAlign=middle;spacingLeft=3;spacingRight=3;strokeColor=none;rotatable=0;points=[[0,0.5],[1,0.5]];portConstraint=eastwest;html=1;" vertex="1" parent="1">
          <mxGeometry x="960" y="590" width="80" height="26" as="geometry" />
        </mxCell>
        <mxCell id="Id2sm8sXSiFgrlO3pFlQ-69" value="Create Project" style="text;align=left;fontStyle=1;verticalAlign=middle;spacingLeft=3;spacingRight=3;strokeColor=none;rotatable=0;points=[[0,0.5],[1,0.5]];portConstraint=eastwest;html=1;" vertex="1" parent="1">
          <mxGeometry x="980" y="616" width="80" height="26" as="geometry" />
        </mxCell>
        <mxCell id="Id2sm8sXSiFgrlO3pFlQ-70" value="Delete Project" style="text;align=left;fontStyle=1;verticalAlign=middle;spacingLeft=3;spacingRight=3;strokeColor=none;rotatable=0;points=[[0,0.5],[1,0.5]];portConstraint=eastwest;html=1;" vertex="1" parent="1">
          <mxGeometry x="980" y="642" width="80" height="26" as="geometry" />
        </mxCell>
        <mxCell id="Id2sm8sXSiFgrlO3pFlQ-71" value="Update Project" style="text;align=left;fontStyle=1;verticalAlign=middle;spacingLeft=3;spacingRight=3;strokeColor=none;rotatable=0;points=[[0,0.5],[1,0.5]];portConstraint=eastwest;html=1;" vertex="1" parent="1">
          <mxGeometry x="980" y="670" width="80" height="26" as="geometry" />
        </mxCell>
        <mxCell id="Id2sm8sXSiFgrlO3pFlQ-72" value="Update Project Metadata" style="text;align=left;fontStyle=1;verticalAlign=middle;spacingLeft=3;spacingRight=3;strokeColor=none;rotatable=0;points=[[0,0.5],[1,0.5]];portConstraint=eastwest;html=1;" vertex="1" parent="1">
          <mxGeometry x="1000" y="696" width="80" height="26" as="geometry" />
        </mxCell>
        <mxCell id="Id2sm8sXSiFgrlO3pFlQ-73" value="Update Project Name" style="text;align=left;fontStyle=1;verticalAlign=middle;spacingLeft=3;spacingRight=3;strokeColor=none;rotatable=0;points=[[0,0.5],[1,0.5]];portConstraint=eastwest;html=1;" vertex="1" parent="1">
          <mxGeometry x="1020" y="722" width="80" height="26" as="geometry" />
        </mxCell>
        <mxCell id="Id2sm8sXSiFgrlO3pFlQ-74" value="Update Project Description" style="text;align=left;fontStyle=1;verticalAlign=middle;spacingLeft=3;spacingRight=3;strokeColor=none;rotatable=0;points=[[0,0.5],[1,0.5]];portConstraint=eastwest;html=1;" vertex="1" parent="1">
          <mxGeometry x="1020" y="748" width="80" height="26" as="geometry" />
        </mxCell>
        <mxCell id="Id2sm8sXSiFgrlO3pFlQ-75" value="Update Project Owner" style="text;align=left;fontStyle=1;verticalAlign=middle;spacingLeft=3;spacingRight=3;strokeColor=none;rotatable=0;points=[[0,0.5],[1,0.5]];portConstraint=eastwest;html=1;" vertex="1" parent="1">
          <mxGeometry x="1020" y="774" width="80" height="26" as="geometry" />
        </mxCell>
        <mxCell id="Id2sm8sXSiFgrlO3pFlQ-76" value="Project File Operations" style="text;align=left;fontStyle=1;verticalAlign=middle;spacingLeft=3;spacingRight=3;strokeColor=none;rotatable=0;points=[[0,0.5],[1,0.5]];portConstraint=eastwest;html=1;" vertex="1" parent="1">
          <mxGeometry x="1000" y="800" width="80" height="26" as="geometry" />
        </mxCell>
        <mxCell id="Id2sm8sXSiFgrlO3pFlQ-77" value="Create File" style="text;align=left;fontStyle=1;verticalAlign=middle;spacingLeft=3;spacingRight=3;strokeColor=none;rotatable=0;points=[[0,0.5],[1,0.5]];portConstraint=eastwest;html=1;" vertex="1" parent="1">
          <mxGeometry x="1020" y="826" width="80" height="26" as="geometry" />
        </mxCell>
        <mxCell id="Id2sm8sXSiFgrlO3pFlQ-78" value="Update File" style="text;align=left;fontStyle=1;verticalAlign=middle;spacingLeft=3;spacingRight=3;strokeColor=none;rotatable=0;points=[[0,0.5],[1,0.5]];portConstraint=eastwest;html=1;" vertex="1" parent="1">
          <mxGeometry x="1020" y="852" width="80" height="26" as="geometry" />
        </mxCell>
        <mxCell id="Id2sm8sXSiFgrlO3pFlQ-79" value="Rename File" style="text;align=left;fontStyle=1;verticalAlign=middle;spacingLeft=3;spacingRight=3;strokeColor=none;rotatable=0;points=[[0,0.5],[1,0.5]];portConstraint=eastwest;html=1;" vertex="1" parent="1">
          <mxGeometry x="1020" y="878" width="80" height="26" as="geometry" />
        </mxCell>
        <mxCell id="Id2sm8sXSiFgrlO3pFlQ-80" value="Read File" style="text;align=left;fontStyle=1;verticalAlign=middle;spacingLeft=3;spacingRight=3;strokeColor=none;rotatable=0;points=[[0,0.5],[1,0.5]];portConstraint=eastwest;html=1;" vertex="1" parent="1">
          <mxGeometry x="1020" y="904" width="80" height="26" as="geometry" />
        </mxCell>
        <mxCell id="Id2sm8sXSiFgrlO3pFlQ-81" value="Create Folder" style="text;align=left;fontStyle=1;verticalAlign=middle;spacingLeft=3;spacingRight=3;strokeColor=none;rotatable=0;points=[[0,0.5],[1,0.5]];portConstraint=eastwest;html=1;" vertex="1" parent="1">
          <mxGeometry x="1020" y="930" width="80" height="26" as="geometry" />
        </mxCell>
        <mxCell id="Id2sm8sXSiFgrlO3pFlQ-82" value="Rename Folder" style="text;align=left;fontStyle=1;verticalAlign=middle;spacingLeft=3;spacingRight=3;strokeColor=none;rotatable=0;points=[[0,0.5],[1,0.5]];portConstraint=eastwest;html=1;" vertex="1" parent="1">
          <mxGeometry x="1020" y="956" width="80" height="26" as="geometry" />
        </mxCell>
        <mxCell id="Id2sm8sXSiFgrlO3pFlQ-83" value="Delete Folder" style="text;align=left;fontStyle=1;verticalAlign=middle;spacingLeft=3;spacingRight=3;strokeColor=none;rotatable=0;points=[[0,0.5],[1,0.5]];portConstraint=eastwest;html=1;" vertex="1" parent="1">
          <mxGeometry x="1020" y="982" width="80" height="26" as="geometry" />
        </mxCell>
        <mxCell id="Id2sm8sXSiFgrlO3pFlQ-84" value="ChatGPT4 Interface API" style="text;align=left;fontStyle=1;verticalAlign=middle;spacingLeft=3;spacingRight=3;strokeColor=none;rotatable=0;points=[[0,0.5],[1,0.5]];portConstraint=eastwest;html=1;" vertex="1" parent="1">
          <mxGeometry x="960" y="1110" width="80" height="26" as="geometry" />
        </mxCell>
        <mxCell id="Id2sm8sXSiFgrlO3pFlQ-85" value="Start Session" style="text;align=left;fontStyle=1;verticalAlign=middle;spacingLeft=3;spacingRight=3;strokeColor=none;rotatable=0;points=[[0,0.5],[1,0.5]];portConstraint=eastwest;html=1;" vertex="1" parent="1">
          <mxGeometry x="980" y="1136" width="80" height="26" as="geometry" />
        </mxCell>
        <mxCell id="Id2sm8sXSiFgrlO3pFlQ-86" value="Create Template" style="text;align=left;fontStyle=1;verticalAlign=middle;spacingLeft=3;spacingRight=3;strokeColor=none;rotatable=0;points=[[0,0.5],[1,0.5]];portConstraint=eastwest;html=1;" vertex="1" parent="1">
          <mxGeometry x="980" y="1160" width="80" height="26" as="geometry" />
        </mxCell>
        <mxCell id="Id2sm8sXSiFgrlO3pFlQ-87" value="Create Page" style="text;align=left;fontStyle=1;verticalAlign=middle;spacingLeft=3;spacingRight=3;strokeColor=none;rotatable=0;points=[[0,0.5],[1,0.5]];portConstraint=eastwest;html=1;" vertex="1" parent="1">
          <mxGeometry x="980" y="1186" width="80" height="26" as="geometry" />
        </mxCell>
        <mxCell id="Id2sm8sXSiFgrlO3pFlQ-88" value="Create Component" style="text;align=left;fontStyle=1;verticalAlign=middle;spacingLeft=3;spacingRight=3;strokeColor=none;rotatable=0;points=[[0,0.5],[1,0.5]];portConstraint=eastwest;html=1;" vertex="1" parent="1">
          <mxGeometry x="980" y="1212" width="80" height="26" as="geometry" />
        </mxCell>
        <mxCell id="Id2sm8sXSiFgrlO3pFlQ-89" value="Chat" style="text;align=left;fontStyle=1;verticalAlign=middle;spacingLeft=3;spacingRight=3;strokeColor=none;rotatable=0;points=[[0,0.5],[1,0.5]];portConstraint=eastwest;html=1;" vertex="1" parent="1">
          <mxGeometry x="980" y="1238" width="80" height="26" as="geometry" />
        </mxCell>
        <mxCell id="Id2sm8sXSiFgrlO3pFlQ-90" value="Toggle Typescript" style="text;align=left;fontStyle=1;verticalAlign=middle;spacingLeft=3;spacingRight=3;strokeColor=none;rotatable=0;points=[[0,0.5],[1,0.5]];portConstraint=eastwest;html=1;" vertex="1" parent="1">
          <mxGeometry x="980" y="1264" width="80" height="26" as="geometry" />
        </mxCell>
        <mxCell id="Id2sm8sXSiFgrlO3pFlQ-91" value="Explain Code" style="text;align=left;fontStyle=1;verticalAlign=middle;spacingLeft=3;spacingRight=3;strokeColor=none;rotatable=0;points=[[0,0.5],[1,0.5]];portConstraint=eastwest;html=1;" vertex="1" parent="1">
          <mxGeometry x="980" y="1290" width="80" height="26" as="geometry" />
        </mxCell>
        <mxCell id="Id2sm8sXSiFgrlO3pFlQ-92" value="Repeat but different" style="text;align=left;fontStyle=1;verticalAlign=middle;spacingLeft=3;spacingRight=3;strokeColor=none;rotatable=0;points=[[0,0.5],[1,0.5]];portConstraint=eastwest;html=1;" vertex="1" parent="1">
          <mxGeometry x="980" y="1316" width="80" height="26" as="geometry" />
        </mxCell>
        <mxCell id="Id2sm8sXSiFgrlO3pFlQ-93" value="Check code for bugs" style="text;align=left;fontStyle=1;verticalAlign=middle;spacingLeft=3;spacingRight=3;strokeColor=none;rotatable=0;points=[[0,0.5],[1,0.5]];portConstraint=eastwest;html=1;" vertex="1" parent="1">
          <mxGeometry x="980" y="1340" width="80" height="26" as="geometry" />
        </mxCell>
        <mxCell id="Id2sm8sXSiFgrlO3pFlQ-94" value="Fix code with error message" style="text;align=left;fontStyle=1;verticalAlign=middle;spacingLeft=3;spacingRight=3;strokeColor=none;rotatable=0;points=[[0,0.5],[1,0.5]];portConstraint=eastwest;html=1;" vertex="1" parent="1">
          <mxGeometry x="980" y="1366" width="80" height="26" as="geometry" />
        </mxCell>
        <mxCell id="Id2sm8sXSiFgrlO3pFlQ-95" value="Lint code" style="text;align=left;fontStyle=1;verticalAlign=middle;spacingLeft=3;spacingRight=3;strokeColor=none;rotatable=0;points=[[0,0.5],[1,0.5]];portConstraint=eastwest;html=1;" vertex="1" parent="1">
          <mxGeometry x="980" y="1392" width="80" height="26" as="geometry" />
        </mxCell>
        <mxCell id="Id2sm8sXSiFgrlO3pFlQ-96" value="Get Project File Structure - Direct" style="text;align=left;fontStyle=1;verticalAlign=middle;spacingLeft=3;spacingRight=3;strokeColor=none;rotatable=0;points=[[0,0.5],[1,0.5]];portConstraint=eastwest;html=1;" vertex="1" parent="1">
          <mxGeometry x="1020" y="1008" width="80" height="26" as="geometry" />
        </mxCell>
        <mxCell id="Id2sm8sXSiFgrlO3pFlQ-97" value="Get File History - Direct" style="text;align=left;fontStyle=1;verticalAlign=middle;spacingLeft=3;spacingRight=3;strokeColor=none;rotatable=0;points=[[0,0.5],[1,0.5]];portConstraint=eastwest;html=1;" vertex="1" parent="1">
          <mxGeometry x="1020" y="1034" width="80" height="26" as="geometry" />
        </mxCell>
        <mxCell id="Id2sm8sXSiFgrlO3pFlQ-98" value="Endpoints" style="text;align=center;fontStyle=1;verticalAlign=middle;spacingLeft=3;spacingRight=3;strokeColor=none;rotatable=0;points=[[0,0.5],[1,0.5]];portConstraint=eastwest;html=1;" vertex="1" parent="1">
          <mxGeometry x="980" y="140" width="80" height="26" as="geometry" />
        </mxCell>
        <mxCell id="Id2sm8sXSiFgrlO3pFlQ-100" value="Delete File" style="text;align=left;fontStyle=1;verticalAlign=middle;spacingLeft=3;spacingRight=3;strokeColor=none;rotatable=0;points=[[0,0.5],[1,0.5]];portConstraint=eastwest;html=1;" vertex="1" parent="1">
          <mxGeometry x="1020" y="1060" width="80" height="26" as="geometry" />
        </mxCell>
      </root>
    </mxGraphModel>
  </diagram>
</mxfile>
